<svg width="201" height="49" viewBox="0 0 201 49" fill="none" xmlns="http://www.w3.org/2000/svg">
<path d="M42.56 16.4C42.56 15.2533 42.7733 14.2467 43.2 13.38C43.64 12.5133 44.2333 11.8467 44.98 11.38C45.7267 10.9133 46.56 10.68 47.48 10.68C48.2667 10.68 48.9533 10.84 49.54 11.16C50.14 11.48 50.6 11.9 50.92 12.42V10.84H54.34V22H50.92V20.42C50.5867 20.94 50.12 21.36 49.52 21.68C48.9333 22 48.2467 22.16 47.46 22.16C46.5533 22.16 45.7267 21.9267 44.98 21.46C44.2333 20.98 43.64 20.3067 43.2 19.44C42.7733 18.56 42.56 17.5467 42.56 16.4ZM50.92 16.42C50.92 15.5667 50.68 14.8933 50.2 14.4C49.7333 13.9067 49.16 13.66 48.48 13.66C47.8 13.66 47.22 13.9067 46.74 14.4C46.2733 14.88 46.04 15.5467 46.04 16.4C46.04 17.2533 46.2733 17.9333 46.74 18.44C47.22 18.9333 47.8 19.18 48.48 19.18C49.16 19.18 49.7333 18.9333 50.2 18.44C50.68 17.9467 50.92 17.2733 50.92 16.42ZM61.0542 10.68C61.8409 10.68 62.5276 10.84 63.1142 11.16C63.7142 11.48 64.1742 11.9 64.4942 12.42V10.84H67.9142V21.98C67.9142 23.0067 67.7076 23.9333 67.2942 24.76C66.8942 25.6 66.2742 26.2667 65.4342 26.76C64.6076 27.2533 63.5742 27.5 62.3342 27.5C60.6809 27.5 59.3409 27.1067 58.3142 26.32C57.2876 25.5467 56.7009 24.4933 56.5542 23.16H59.9342C60.0409 23.5867 60.2942 23.92 60.6942 24.16C61.0942 24.4133 61.5876 24.54 62.1742 24.54C62.8809 24.54 63.4409 24.3333 63.8542 23.92C64.2809 23.52 64.4942 22.8733 64.4942 21.98V20.4C64.1609 20.92 63.7009 21.3467 63.1142 21.68C62.5276 22 61.8409 22.16 61.0542 22.16C60.1342 22.16 59.3009 21.9267 58.5542 21.46C57.8076 20.98 57.2142 20.3067 56.7742 19.44C56.3476 18.56 56.1342 17.5467 56.1342 16.4C56.1342 15.2533 56.3476 14.2467 56.7742 13.38C57.2142 12.5133 57.8076 11.8467 58.5542 11.38C59.3009 10.9133 60.1342 10.68 61.0542 10.68ZM64.4942 16.42C64.4942 15.5667 64.2542 14.8933 63.7742 14.4C63.3076 13.9067 62.7342 13.66 62.0542 13.66C61.3742 13.66 60.7942 13.9067 60.3142 14.4C59.8476 14.88 59.6142 15.5467 59.6142 16.4C59.6142 17.2533 59.8476 17.9333 60.3142 18.44C60.7942 18.9333 61.3742 19.18 62.0542 19.18C62.7342 19.18 63.3076 18.9333 63.7742 18.44C64.2542 17.9467 64.4942 17.2733 64.4942 16.42ZM80.9084 16.24C80.9084 16.56 80.8884 16.8933 80.8484 17.24H73.1084C73.1618 17.9333 73.3818 18.4667 73.7684 18.84C74.1684 19.2 74.6551 19.38 75.2284 19.38C76.0818 19.38 76.6751 19.02 77.0084 18.3H80.6484C80.4618 19.0333 80.1218 19.6933 79.6284 20.28C79.1484 20.8667 78.5418 21.3267 77.8084 21.66C77.0751 21.9933 76.2551 22.16 75.3484 22.16C74.2551 22.16 73.2818 21.9267 72.4284 21.46C71.5751 20.9933 70.9084 20.3267 70.4284 19.46C69.9484 18.5933 69.7084 17.58 69.7084 16.42C69.7084 15.26 69.9418 14.2467 70.4084 13.38C70.8884 12.5133 71.5551 11.8467 72.4084 11.38C73.2618 10.9133 74.2418 10.68 75.3484 10.68C76.4284 10.68 77.3884 10.9067 78.2284 11.36C79.0684 11.8133 79.7218 12.46 80.1884 13.3C80.6684 14.14 80.9084 15.12 80.9084 16.24ZM77.4084 15.34C77.4084 14.7533 77.2084 14.2867 76.8084 13.94C76.4084 13.5933 75.9084 13.42 75.3084 13.42C74.7351 13.42 74.2484 13.5867 73.8484 13.92C73.4618 14.2533 73.2218 14.7267 73.1284 15.34H77.4084ZM89.5127 10.72C90.8193 10.72 91.8593 11.1467 92.6327 12C93.4193 12.84 93.8127 14 93.8127 15.48V22H90.4127V15.94C90.4127 15.1933 90.2193 14.6133 89.8327 14.2C89.446 13.7867 88.926 13.58 88.2727 13.58C87.6193 13.58 87.0993 13.7867 86.7127 14.2C86.326 14.6133 86.1327 15.1933 86.1327 15.94V22H82.7127V10.84H86.1327V12.32C86.4793 11.8267 86.946 11.44 87.5327 11.16C88.1193 10.8667 88.7793 10.72 89.5127 10.72ZM95.5092 16.4C95.5092 15.2533 95.7226 14.2467 96.1492 13.38C96.5892 12.5133 97.1826 11.8467 97.9292 11.38C98.6759 10.9133 99.5092 10.68 100.429 10.68C101.163 10.68 101.829 10.8333 102.429 11.14C103.043 11.4467 103.523 11.86 103.869 12.38V7.2H107.289V22H103.869V20.4C103.549 20.9333 103.089 21.36 102.489 21.68C101.903 22 101.216 22.16 100.429 22.16C99.5092 22.16 98.6759 21.9267 97.9292 21.46C97.1826 20.98 96.5892 20.3067 96.1492 19.44C95.7226 18.56 95.5092 17.5467 95.5092 16.4ZM103.869 16.42C103.869 15.5667 103.629 14.8933 103.149 14.4C102.683 13.9067 102.109 13.66 101.429 13.66C100.749 13.66 100.169 13.9067 99.6892 14.4C99.2226 14.88 98.9892 15.5467 98.9892 16.4C98.9892 17.2533 99.2226 17.9333 99.6892 18.44C100.169 18.9333 100.749 19.18 101.429 19.18C102.109 19.18 102.683 18.9333 103.149 18.44C103.629 17.9467 103.869 17.2733 103.869 16.42ZM109.083 16.4C109.083 15.2533 109.297 14.2467 109.723 13.38C110.163 12.5133 110.757 11.8467 111.503 11.38C112.25 10.9133 113.083 10.68 114.003 10.68C114.79 10.68 115.477 10.84 116.063 11.16C116.663 11.48 117.123 11.9 117.443 12.42V10.84H120.863V22H117.443V20.42C117.11 20.94 116.643 21.36 116.043 21.68C115.457 22 114.77 22.16 113.983 22.16C113.077 22.16 112.25 21.9267 111.503 21.46C110.757 20.98 110.163 20.3067 109.723 19.44C109.297 18.56 109.083 17.5467 109.083 16.4ZM117.443 16.42C117.443 15.5667 117.203 14.8933 116.723 14.4C116.257 13.9067 115.683 13.66 115.003 13.66C114.323 13.66 113.743 13.9067 113.263 14.4C112.797 14.88 112.563 15.5467 112.563 16.4C112.563 17.2533 112.797 17.9333 113.263 18.44C113.743 18.9333 114.323 19.18 115.003 19.18C115.683 19.18 116.257 18.9333 116.723 18.44C117.203 17.9467 117.443 17.2733 117.443 16.42ZM130.996 7.2V22H127.576V7.2H130.996ZM132.794 16.4C132.794 15.2533 133.008 14.2467 133.434 13.38C133.874 12.5133 134.468 11.8467 135.214 11.38C135.961 10.9133 136.794 10.68 137.714 10.68C138.501 10.68 139.188 10.84 139.774 11.16C140.374 11.48 140.834 11.9 141.154 12.42V10.84H144.574V22H141.154V20.42C140.821 20.94 140.354 21.36 139.754 21.68C139.168 22 138.481 22.16 137.694 22.16C136.788 22.16 135.961 21.9267 135.214 21.46C134.468 20.98 133.874 20.3067 133.434 19.44C133.008 18.56 132.794 17.5467 132.794 16.4ZM141.154 16.42C141.154 15.5667 140.914 14.8933 140.434 14.4C139.968 13.9067 139.394 13.66 138.714 13.66C138.034 13.66 137.454 13.9067 136.974 14.4C136.508 14.88 136.274 15.5467 136.274 16.4C136.274 17.2533 136.508 17.9333 136.974 18.44C137.454 18.9333 138.034 19.18 138.714 19.18C139.394 19.18 139.968 18.9333 140.434 18.44C140.914 17.9467 141.154 17.2733 141.154 16.42ZM150.469 12.7C150.869 12.0867 151.369 11.6067 151.969 11.26C152.569 10.9 153.235 10.72 153.969 10.72V14.34H153.029C152.175 14.34 151.535 14.5267 151.109 14.9C150.682 15.26 150.469 15.9 150.469 16.82V22H147.049V10.84H150.469V12.7ZM154.923 16.4C154.923 15.2533 155.137 14.2467 155.563 13.38C156.003 12.5133 156.597 11.8467 157.343 11.38C158.09 10.9133 158.923 10.68 159.843 10.68C160.63 10.68 161.317 10.84 161.903 11.16C162.503 11.48 162.963 11.9 163.283 12.42V10.84H166.703V22H163.283V20.42C162.95 20.94 162.483 21.36 161.883 21.68C161.297 22 160.61 22.16 159.823 22.16C158.917 22.16 158.09 21.9267 157.343 21.46C156.597 20.98 156.003 20.3067 155.563 19.44C155.137 18.56 154.923 17.5467 154.923 16.4ZM163.283 16.42C163.283 15.5667 163.043 14.8933 162.563 14.4C162.097 13.9067 161.523 13.66 160.843 13.66C160.163 13.66 159.583 13.9067 159.103 14.4C158.637 14.88 158.403 15.5467 158.403 16.4C158.403 17.2533 158.637 17.9333 159.103 18.44C159.583 18.9333 160.163 19.18 160.843 19.18C161.523 19.18 162.097 18.9333 162.563 18.44C163.043 17.9467 163.283 17.2733 163.283 16.42ZM175.978 10.72C177.284 10.72 178.324 11.1467 179.098 12C179.884 12.84 180.278 14 180.278 15.48V22H176.878V15.94C176.878 15.1933 176.684 14.6133 176.298 14.2C175.911 13.7867 175.391 13.58 174.738 13.58C174.084 13.58 173.564 13.7867 173.178 14.2C172.791 14.6133 172.598 15.1933 172.598 15.94V22H169.178V10.84H172.598V12.32C172.944 11.8267 173.411 11.44 173.998 11.16C174.584 10.8667 175.244 10.72 175.978 10.72ZM184.354 9.68C183.754 9.68 183.261 9.50667 182.874 9.16C182.501 8.8 182.314 8.36 182.314 7.84C182.314 7.30667 182.501 6.86667 182.874 6.52C183.261 6.16 183.754 5.98 184.354 5.98C184.941 5.98 185.421 6.16 185.794 6.52C186.181 6.86667 186.374 7.30667 186.374 7.84C186.374 8.36 186.181 8.8 185.794 9.16C185.421 9.50667 184.941 9.68 184.354 9.68ZM186.074 23.44C186.074 24.8133 185.727 25.8 185.034 26.4C184.341 27.0133 183.374 27.32 182.134 27.32H180.794V24.42H181.614C181.987 24.42 182.254 24.3467 182.414 24.2C182.574 24.0533 182.654 23.8133 182.654 23.48V10.84H186.074V23.44ZM187.853 16.4C187.853 15.2533 188.066 14.2467 188.493 13.38C188.933 12.5133 189.526 11.8467 190.273 11.38C191.02 10.9133 191.853 10.68 192.773 10.68C193.56 10.68 194.246 10.84 194.833 11.16C195.433 11.48 195.893 11.9 196.213 12.42V10.84H199.633V22H196.213V20.42C195.88 20.94 195.413 21.36 194.813 21.68C194.226 22 193.54 22.16 192.753 22.16C191.846 22.16 191.02 21.9267 190.273 21.46C189.526 20.98 188.933 20.3067 188.493 19.44C188.066 18.56 187.853 17.5467 187.853 16.4ZM196.213 16.42C196.213 15.5667 195.973 14.8933 195.493 14.4C195.026 13.9067 194.453 13.66 193.773 13.66C193.093 13.66 192.513 13.9067 192.033 14.4C191.566 14.88 191.333 15.5467 191.333 16.4C191.333 17.2533 191.566 17.9333 192.033 18.44C192.513 18.9333 193.093 19.18 193.773 19.18C194.453 19.18 195.026 18.9333 195.493 18.44C195.973 17.9467 196.213 17.2733 196.213 16.42Z" fill="#9E9E9E"/>
<path fill-rule="evenodd" clip-rule="evenodd" d="M0 0H31V31H0V0ZM23.04 17.7237V10L9 10V13.42H9.00216L9.00011 21.14L23.0401 21.1437L23.041 17.7237H23.04ZM11.7422 13.42L11.741 17.7207L14.701 17.7215L14.701 17.7H14.68V13.42H11.7422ZM17.34 13.4422L17.3622 13.4422L17.361 17.7222L20.3 17.723V13.42H17.34V13.4422Z" fill="#FF611D"/>
<path d="M75.7 41.7C76.1933 41.7 76.64 41.8133 77.04 42.04C77.44 42.26 77.7533 42.5733 77.98 42.98C78.2067 43.3867 78.32 43.85 78.32 44.37C78.32 44.8967 78.2067 45.3633 77.98 45.77C77.7533 46.1767 77.44 46.4933 77.04 46.72C76.6467 46.94 76.2 47.05 75.7 47.05C75.2733 47.05 74.8867 46.9633 74.54 46.79C74.2 46.61 73.92 46.35 73.7 46.01V48.94H72.99V41.74H73.67V42.78C73.8833 42.4333 74.1633 42.1667 74.51 41.98C74.8633 41.7933 75.26 41.7 75.7 41.7ZM75.65 46.42C76.0167 46.42 76.35 46.3367 76.65 46.17C76.95 45.9967 77.1833 45.7533 77.35 45.44C77.5233 45.1267 77.61 44.77 77.61 44.37C77.61 43.97 77.5233 43.6167 77.35 43.31C77.1833 42.9967 76.95 42.7533 76.65 42.58C76.35 42.4067 76.0167 42.32 75.65 42.32C75.2767 42.32 74.94 42.4067 74.64 42.58C74.3467 42.7533 74.1133 42.9967 73.94 43.31C73.7733 43.6167 73.69 43.97 73.69 44.37C73.69 44.77 73.7733 45.1267 73.94 45.44C74.1133 45.7533 74.3467 45.9967 74.64 46.17C74.94 46.3367 75.2767 46.42 75.65 46.42ZM81.9173 47.05C81.4107 47.05 80.954 46.9367 80.5473 46.71C80.1407 46.4767 79.8207 46.1567 79.5873 45.75C79.354 45.3433 79.2373 44.8833 79.2373 44.37C79.2373 43.8567 79.354 43.3967 79.5873 42.99C79.8207 42.5833 80.1407 42.2667 80.5473 42.04C80.954 41.8133 81.4107 41.7 81.9173 41.7C82.424 41.7 82.8807 41.8133 83.2873 42.04C83.694 42.2667 84.0107 42.5833 84.2373 42.99C84.4707 43.3967 84.5873 43.8567 84.5873 44.37C84.5873 44.8833 84.4707 45.3433 84.2373 45.75C84.0107 46.1567 83.694 46.4767 83.2873 46.71C82.8807 46.9367 82.424 47.05 81.9173 47.05ZM81.9173 46.42C82.2907 46.42 82.624 46.3367 82.9173 46.17C83.2173 45.9967 83.4507 45.7533 83.6173 45.44C83.784 45.1267 83.8673 44.77 83.8673 44.37C83.8673 43.97 83.784 43.6133 83.6173 43.3C83.4507 42.9867 83.2173 42.7467 82.9173 42.58C82.624 42.4067 82.2907 42.32 81.9173 42.32C81.544 42.32 81.2073 42.4067 80.9073 42.58C80.614 42.7467 80.3807 42.9867 80.2073 43.3C80.0407 43.6133 79.9573 43.97 79.9573 44.37C79.9573 44.77 80.0407 45.1267 80.2073 45.44C80.3807 45.7533 80.614 45.9967 80.9073 46.17C81.2073 46.3367 81.544 46.42 81.9173 46.42ZM93.6104 41.74L91.6204 47H90.9504L89.2904 42.69L87.6304 47H86.9604L84.9804 41.74H85.6604L87.3104 46.21L89.0004 41.74H89.6104L91.2904 46.21L92.9604 41.74H93.6104ZM99.113 44.59H94.713C94.753 45.1367 94.963 45.58 95.343 45.92C95.723 46.2533 96.203 46.42 96.783 46.42C97.1096 46.42 97.4096 46.3633 97.683 46.25C97.9563 46.13 98.193 45.9567 98.393 45.73L98.793 46.19C98.5596 46.47 98.2663 46.6833 97.913 46.83C97.5663 46.9767 97.183 47.05 96.763 47.05C96.223 47.05 95.743 46.9367 95.323 46.71C94.9096 46.4767 94.5863 46.1567 94.353 45.75C94.1196 45.3433 94.003 44.8833 94.003 44.37C94.003 43.8567 94.113 43.3967 94.333 42.99C94.5596 42.5833 94.8663 42.2667 95.253 42.04C95.6463 41.8133 96.0863 41.7 96.573 41.7C97.0596 41.7 97.4963 41.8133 97.883 42.04C98.2696 42.2667 98.573 42.5833 98.793 42.99C99.013 43.39 99.123 43.85 99.123 44.37L99.113 44.59ZM96.573 42.31C96.0663 42.31 95.6396 42.4733 95.293 42.8C94.953 43.12 94.7596 43.54 94.713 44.06H98.443C98.3963 43.54 98.1996 43.12 97.853 42.8C97.513 42.4733 97.0863 42.31 96.573 42.31ZM101.248 42.77C101.415 42.4167 101.661 42.15 101.988 41.97C102.321 41.79 102.731 41.7 103.218 41.7V42.39L103.048 42.38C102.495 42.38 102.061 42.55 101.748 42.89C101.435 43.23 101.278 43.7067 101.278 44.32V47H100.568V41.74H101.248V42.77ZM109.035 44.59H104.635C104.675 45.1367 104.885 45.58 105.265 45.92C105.645 46.2533 106.125 46.42 106.705 46.42C107.032 46.42 107.332 46.3633 107.605 46.25C107.878 46.13 108.115 45.9567 108.315 45.73L108.715 46.19C108.482 46.47 108.188 46.6833 107.835 46.83C107.488 46.9767 107.105 47.05 106.685 47.05C106.145 47.05 105.665 46.9367 105.245 46.71C104.832 46.4767 104.508 46.1567 104.275 45.75C104.042 45.3433 103.925 44.8833 103.925 44.37C103.925 43.8567 104.035 43.3967 104.255 42.99C104.482 42.5833 104.788 42.2667 105.175 42.04C105.568 41.8133 106.008 41.7 106.495 41.7C106.982 41.7 107.418 41.8133 107.805 42.04C108.192 42.2667 108.495 42.5833 108.715 42.99C108.935 43.39 109.045 43.85 109.045 44.37L109.035 44.59ZM106.495 42.31C105.988 42.31 105.562 42.4733 105.215 42.8C104.875 43.12 104.682 43.54 104.635 44.06H108.365C108.318 43.54 108.122 43.12 107.775 42.8C107.435 42.4733 107.008 42.31 106.495 42.31ZM115.29 39.58V47H114.61V45.96C114.397 46.3133 114.113 46.5833 113.76 46.77C113.413 46.9567 113.02 47.05 112.58 47.05C112.087 47.05 111.64 46.9367 111.24 46.71C110.84 46.4833 110.527 46.1667 110.3 45.76C110.073 45.3533 109.96 44.89 109.96 44.37C109.96 43.85 110.073 43.3867 110.3 42.98C110.527 42.5733 110.84 42.26 111.24 42.04C111.64 41.8133 112.087 41.7 112.58 41.7C113.007 41.7 113.39 41.79 113.73 41.97C114.077 42.1433 114.36 42.4 114.58 42.74V39.58H115.29ZM112.64 46.42C113.007 46.42 113.337 46.3367 113.63 46.17C113.93 45.9967 114.163 45.7533 114.33 45.44C114.503 45.1267 114.59 44.77 114.59 44.37C114.59 43.97 114.503 43.6133 114.33 43.3C114.163 42.9867 113.93 42.7467 113.63 42.58C113.337 42.4067 113.007 42.32 112.64 42.32C112.267 42.32 111.93 42.4067 111.63 42.58C111.337 42.7467 111.103 42.9867 110.93 43.3C110.763 43.6133 110.68 43.97 110.68 44.37C110.68 44.77 110.763 45.1267 110.93 45.44C111.103 45.7533 111.337 45.9967 111.63 46.17C111.93 46.3367 112.267 46.42 112.64 46.42ZM122.595 41.7C123.088 41.7 123.535 41.8133 123.935 42.04C124.335 42.26 124.648 42.5733 124.875 42.98C125.101 43.3867 125.215 43.85 125.215 44.37C125.215 44.89 125.101 45.3533 124.875 45.76C124.648 46.1667 124.335 46.4833 123.935 46.71C123.535 46.9367 123.088 47.05 122.595 47.05C122.155 47.05 121.758 46.9567 121.405 46.77C121.058 46.5833 120.778 46.3133 120.565 45.96V47H119.885V39.58H120.595V42.74C120.815 42.4 121.095 42.1433 121.435 41.97C121.781 41.79 122.168 41.7 122.595 41.7ZM122.545 46.42C122.911 46.42 123.245 46.3367 123.545 46.17C123.845 45.9967 124.078 45.7533 124.245 45.44C124.418 45.1267 124.505 44.77 124.505 44.37C124.505 43.97 124.418 43.6133 124.245 43.3C124.078 42.9867 123.845 42.7467 123.545 42.58C123.245 42.4067 122.911 42.32 122.545 42.32C122.171 42.32 121.835 42.4067 121.535 42.58C121.241 42.7467 121.008 42.9867 120.835 43.3C120.668 43.6133 120.585 43.97 120.585 44.37C120.585 44.77 120.668 45.1267 120.835 45.44C121.008 45.7533 121.241 45.9967 121.535 46.17C121.835 46.3367 122.171 46.42 122.545 46.42ZM130.935 41.74L128.305 47.63C128.092 48.1233 127.845 48.4733 127.565 48.68C127.285 48.8867 126.949 48.99 126.555 48.99C126.302 48.99 126.065 48.95 125.845 48.87C125.625 48.79 125.435 48.67 125.275 48.51L125.605 47.98C125.872 48.2467 126.192 48.38 126.565 48.38C126.805 48.38 127.009 48.3133 127.175 48.18C127.349 48.0467 127.509 47.82 127.655 47.5L127.885 46.99L125.535 41.74H126.275L128.255 46.21L130.235 41.74H130.935Z" fill="#9E9E9E"/>
<g clip-path="url(#clip0)">
<path d="M150.196 33C150.194 33.0702 150.19 33.1404 150.189 33.2109C150.189 35.5395 150.195 37.8682 150.186 40.1968C150.179 41.7899 149.673 43.2203 148.693 44.471C147.554 45.9252 146.06 46.8009 144.241 47.117C144.016 47.1561 143.784 47.1634 143.556 47.1881C143.492 47.195 143.43 47.2113 143.366 47.223H142.825C142.773 47.2075 142.72 47.1963 142.666 47.1896C141.879 47.1507 141.116 46.9886 140.399 46.6683C137.9 45.5534 136.44 43.6418 136.063 40.9169C136.038 40.7395 136.019 40.5611 135.997 40.383V39.8406C136.009 39.7873 136.023 39.7346 136.031 39.6806C136.093 39.2606 136.125 38.8336 136.221 38.4214C136.883 35.5733 139.403 33.3592 142.293 33.066C142.47 33.0482 142.647 33.0226 142.825 33.0006L150.196 33ZM141.104 40.116V43.505C141.104 43.9067 141.1 44.3083 141.106 44.7103C141.112 45.0975 141.367 45.3807 141.751 45.4419C142.067 45.4925 142.411 45.2801 142.511 44.958C142.544 44.8431 142.56 44.7239 142.559 44.6042C142.562 43.4246 142.561 42.2446 142.561 41.0646C142.561 40.8507 142.561 40.8507 142.771 40.8504C143.764 40.8504 144.757 40.854 145.749 40.8449C146.183 40.8407 146.485 40.4044 146.363 39.9865C146.269 39.6613 146.005 39.4778 145.619 39.4769C144.666 39.4751 143.714 39.4751 142.761 39.4769C142.561 39.4769 142.561 39.4769 142.561 39.2835C142.561 38.2994 142.564 37.3152 142.557 36.3305C142.557 36.1762 142.599 36.1392 142.75 36.1398C144.048 36.1458 145.346 36.1466 146.644 36.1422C147.054 36.1422 147.366 35.8409 147.371 35.4534C147.376 35.0719 147.057 34.7694 146.646 34.7691C145.052 34.7691 143.458 34.7691 141.863 34.7691C141.803 34.7679 141.744 34.7741 141.685 34.7874C141.327 34.8796 141.104 35.1852 141.104 35.5829C141.104 37.0938 141.104 38.6048 141.104 40.116Z" fill="#FF601C"/>
<path d="M201 35.0791C200.986 35.1421 200.97 35.2045 200.96 35.2681C200.864 35.9768 200.234 36.6044 199.526 36.6945C198.61 36.8111 197.797 36.2446 197.587 35.3434C197.364 34.3822 197.987 33.3848 198.943 33.1739C199.727 33.0009 200.502 33.4342 200.84 34.2484C200.914 34.4259 200.948 34.6205 201 34.8073V35.0791ZM198.19 34.8962C198.206 35.136 198.271 35.37 198.381 35.5832C198.721 36.2437 199.635 36.3182 200.066 35.7134C200.362 35.2967 200.392 34.8396 200.204 34.3689C200.037 33.9525 199.727 33.7123 199.276 33.7018C198.829 33.6909 198.507 33.9127 198.333 34.3201C198.255 34.4994 198.236 34.7034 198.19 34.8962Z" fill="#FF601C"/>
<path d="M175.156 39.6071C175.205 39.5272 175.233 39.4823 175.26 39.4368C175.764 38.5931 176.518 38.19 177.486 38.1613C177.963 38.1475 178.426 38.2087 178.86 38.416C179.612 38.7757 180.005 39.4133 180.17 40.2016C180.236 40.5255 180.27 40.8549 180.272 41.1854C180.284 42.3452 180.272 43.5056 180.279 44.6648C180.282 45.0942 179.976 45.3488 179.666 45.3729C179.269 45.403 178.958 45.1098 178.956 44.6931C178.951 43.7843 178.956 42.8755 178.953 41.9667C178.953 41.651 178.955 41.334 178.928 41.0191C178.868 40.3324 178.531 39.6586 177.706 39.4793C176.635 39.2464 175.633 39.9539 175.486 41.0516C175.462 41.2405 175.451 41.4308 175.452 41.6211C175.449 42.6155 175.45 43.6099 175.452 44.6042C175.452 44.785 175.415 44.9529 175.3 45.0969C175.214 45.2056 175.096 45.2848 174.963 45.3236C174.829 45.3623 174.688 45.3587 174.557 45.3132C174.428 45.2683 174.317 45.1842 174.238 45.0727C174.16 44.9611 174.118 44.8278 174.119 44.6913C174.117 43.5815 174.119 42.4721 174.117 41.3623C174.117 40.9887 174.065 40.6225 173.906 40.279C173.619 39.6583 173.043 39.3431 172.365 39.4329C171.402 39.5604 170.853 40.0561 170.659 40.9832C170.628 41.1405 170.613 41.3005 170.614 41.4608C170.61 42.5254 170.612 43.5897 170.611 44.6548C170.611 45.1032 170.28 45.4003 169.842 45.3512C169.547 45.3184 169.301 45.0577 169.278 44.7561C169.278 44.741 169.278 44.726 169.278 44.7109C169.278 42.7676 169.278 40.8244 169.278 38.8815C169.28 38.727 169.335 38.5778 169.433 38.459C169.532 38.3401 169.668 38.259 169.82 38.2291C170.121 38.1689 170.445 38.3482 170.557 38.6456C170.588 38.7352 170.605 38.8288 170.609 38.9234C170.618 39.0469 170.611 39.1711 170.611 39.3314C171.204 38.4862 171.988 38.096 172.978 38.1562C173.959 38.2135 174.727 38.6242 175.156 39.6071Z" fill="#FF601C"/>
<path d="M156.712 45.4681C154.208 45.438 152.057 43.6563 151.586 41.1933C151.112 38.7113 152.31 36.3155 154.545 35.2913C155.371 34.9128 156.239 34.7682 157.147 34.8417C158.282 34.9336 159.284 35.3338 160.135 36.097C160.528 36.4498 160.436 37.0573 159.961 37.2481C159.687 37.3583 159.44 37.2987 159.222 37.11C158.8 36.7454 158.328 36.4685 157.792 36.3049C155.837 35.7068 153.743 36.8051 153.077 38.7779C152.426 40.7048 153.211 42.8062 154.96 43.6834C156.401 44.4066 157.788 44.2421 159.077 43.2715C159.215 43.1672 159.356 43.0485 159.515 42.9925C159.659 42.9437 159.815 42.9472 159.956 43.0023C160.098 43.0574 160.216 43.1606 160.289 43.2938C160.369 43.4321 160.398 43.594 160.371 43.7516C160.345 43.9092 160.264 44.0526 160.144 44.1571C159.51 44.7409 158.728 45.1394 157.884 45.3093C157.498 45.3877 157.103 45.4178 156.712 45.4681Z" fill="#FF601C"/>
<path d="M166.167 41.4494C166.286 40.5524 165.967 39.7192 164.964 39.442C164.116 39.2075 163.344 39.3932 162.632 39.8967C162.504 39.9884 162.355 40.048 162.199 40.0705C161.634 40.1365 161.48 39.5489 161.659 39.2268C161.725 39.1149 161.811 39.0164 161.913 38.9364C162.441 38.5094 163.05 38.2707 163.72 38.1906C164.419 38.1071 165.111 38.1336 165.78 38.3735C166.829 38.7498 167.404 39.5221 167.475 40.6159C167.538 41.5802 167.505 42.5522 167.514 43.5207C167.517 43.9175 167.518 44.3141 167.514 44.7109C167.51 45.0246 167.268 45.3045 166.977 45.3467C166.62 45.3985 166.335 45.2364 166.235 44.9104C166.204 44.8121 166.208 44.7031 166.197 44.5988C166.192 44.5422 166.188 44.4849 166.18 44.3906C166.037 44.5367 165.932 44.6657 165.806 44.7691C165.357 45.1346 164.827 45.3148 164.265 45.3961C163.622 45.4892 162.987 45.4467 162.377 45.1997C161.528 44.8558 161.07 44.1586 161.083 43.2411C161.099 42.2205 161.679 41.5136 162.745 41.2382C163.724 40.9851 164.698 41.0486 165.666 41.3123C165.83 41.3563 165.993 41.4015 166.167 41.4494ZM166.18 42.9494C166.18 42.8701 166.18 42.8349 166.18 42.7987C166.17 42.4757 166.25 42.5158 165.896 42.4371C165.366 42.3185 164.83 42.2271 164.29 42.1635C163.841 42.112 163.388 42.1581 162.967 42.3428C162.53 42.5329 162.316 42.8813 162.341 43.3387C162.361 43.7144 162.632 44.0197 163.071 44.1586C163.442 44.2761 163.82 44.2704 164.199 44.2188C164.807 44.1336 165.378 43.9498 165.867 43.5617C166.079 43.3935 166.271 43.2182 166.18 42.9494Z" fill="#FF601C"/>
<path d="M186.661 44.3933C186.628 44.4187 186.597 44.4459 186.567 44.4747C186.055 45.0692 185.373 45.3117 184.624 45.4067C183.982 45.488 183.356 45.4235 182.756 45.1656C181.249 44.5187 181.259 42.5812 182.141 41.7953C182.524 41.4536 182.978 41.2728 183.471 41.1761C184.483 40.9781 185.472 41.102 186.448 41.3991C186.508 41.4174 186.57 41.431 186.633 41.4476C186.757 40.562 186.422 39.715 185.429 39.442C184.582 39.2091 183.805 39.3856 183.1 39.9009C182.964 40.0009 182.823 40.0742 182.649 40.0784C182.207 40.0886 181.929 39.7126 182.093 39.297C182.147 39.1681 182.232 39.0543 182.34 38.9656C183.06 38.3696 183.904 38.1433 184.825 38.149C185.359 38.1523 185.882 38.2177 186.381 38.4244C187.316 38.8131 187.811 39.5354 187.934 40.5234C187.97 40.8106 187.968 41.1038 187.969 41.3942C187.973 42.489 187.973 43.5839 187.969 44.6787C187.969 45.1138 187.643 45.3976 187.212 45.3497C186.917 45.3172 186.674 45.0532 186.661 44.7471C186.657 44.6452 186.661 44.5416 186.661 44.3933ZM186.657 42.9141C186.652 42.8189 186.644 42.7237 186.643 42.6285C186.643 42.5447 186.604 42.5055 186.525 42.4826C185.806 42.2717 185.075 42.1334 184.324 42.1578C183.938 42.1701 183.554 42.228 183.224 42.4573C182.894 42.6866 182.757 43.0111 182.817 43.4086C182.887 43.8654 183.211 44.0754 183.615 44.1842C184.03 44.2957 184.45 44.2671 184.866 44.1878C185.428 44.0811 185.955 43.8919 186.397 43.5092C186.579 43.3504 186.733 43.1829 186.657 42.9132V42.9141Z" fill="#FF601C"/>
<path d="M199.655 44.4054C199.627 44.42 199.6 44.4373 199.576 44.4572C199.144 44.9782 198.564 45.2316 197.921 45.3587C197.184 45.5046 196.454 45.4763 195.76 45.165C194.933 44.795 194.53 44.1405 194.541 43.2347C194.551 42.3543 194.973 41.7444 195.769 41.3888C196.228 41.1839 196.717 41.1134 197.213 41.0875C197.977 41.0459 198.717 41.183 199.445 41.4021C199.501 41.419 199.558 41.4322 199.649 41.4578C199.649 41.277 199.66 41.1137 199.647 40.9531C199.578 40.0742 199.003 39.4932 198.13 39.376C197.357 39.2723 196.673 39.464 196.058 39.9301C195.877 40.0669 195.676 40.1043 195.462 40.069C195.161 40.0196 194.96 39.6616 195.074 39.341C195.128 39.1969 195.218 39.0688 195.335 38.9686C195.876 38.5088 196.516 38.2626 197.219 38.1852C197.954 38.105 198.679 38.1412 199.373 38.4262C200.309 38.811 200.802 39.5348 200.928 40.5228C200.955 40.7769 200.967 41.0324 200.963 41.2879C200.967 42.4174 200.967 43.547 200.963 44.6766C200.963 45.1159 200.64 45.3976 200.211 45.3515C199.916 45.3196 199.67 45.0562 199.656 44.7534C199.651 44.6482 199.655 44.544 199.655 44.4054ZM197.213 44.2803C197.522 44.2288 197.837 44.1965 198.14 44.1218C198.682 43.9886 199.182 43.7629 199.56 43.3302C199.609 43.2756 199.64 43.2072 199.648 43.1344C199.658 42.9696 199.642 42.8029 199.642 42.6381C199.642 42.5477 199.602 42.5058 199.516 42.4808C198.802 42.272 198.077 42.1343 197.33 42.1566C196.934 42.1683 196.541 42.2292 196.203 42.466C195.613 42.8798 195.668 43.7367 196.306 44.0682C196.588 44.2149 196.893 44.2568 197.213 44.2803Z" fill="#FF601C"/>
<path d="M191.112 39.8081C191.132 39.7547 191.153 39.702 191.172 39.6484C191.331 39.2088 191.541 38.8023 191.918 38.5061C192.189 38.2927 192.5 38.1644 192.845 38.1632C193.128 38.1632 193.411 38.1963 193.694 38.2234C193.763 38.2349 193.83 38.2572 193.892 38.2897C194.193 38.425 194.315 38.67 194.249 39.0032C194.199 39.257 193.978 39.429 193.673 39.4372C193.514 39.4417 193.354 39.4263 193.194 39.4176C192.58 39.3838 192.074 39.5902 191.708 40.0986C191.384 40.5505 191.241 41.0688 191.154 41.6076C191.026 42.4052 191.077 43.2091 191.067 44.0109C191.065 44.227 191.067 44.4427 191.067 44.6588C191.064 45.0665 190.804 45.3464 190.42 45.3578C190.044 45.3693 189.758 45.0918 189.732 44.6913C189.732 44.6663 189.732 44.6413 189.732 44.616C189.732 42.7335 189.732 40.851 189.732 38.9683C189.732 38.5913 189.918 38.3313 190.244 38.2433C190.64 38.1357 191.056 38.4389 191.066 38.8511C191.074 39.1663 191.066 39.4821 191.066 39.7975L191.112 39.8081Z" fill="#FF601C"/>
<path d="M188.092 35.3624L188.89 36.681C188.7 36.681 188.543 36.668 188.389 36.6843C188.198 36.7045 188.088 36.6309 187.998 36.464C187.841 36.1735 187.654 35.899 187.487 35.614C187.435 35.5266 187.379 35.4823 187.273 35.4892C187.128 35.4968 186.982 35.4968 186.837 35.4892C186.739 35.4856 186.704 35.5242 186.705 35.6206C186.708 35.9219 186.701 36.2232 186.708 36.5246C186.711 36.6427 186.674 36.6885 186.555 36.6819C186.43 36.6751 186.305 36.6751 186.18 36.6819C186.067 36.6879 186.033 36.6406 186.033 36.5312C186.037 36.0244 186.035 35.5175 186.035 35.0107C186.035 34.4488 186.039 33.8865 186.032 33.3233C186.032 33.191 186.069 33.1513 186.202 33.1534C186.668 33.1612 187.134 33.1549 187.599 33.1567C188.103 33.1588 188.541 33.5068 188.687 34.0158C188.752 34.2493 188.741 34.4975 188.656 34.7246C188.571 34.9517 188.416 35.1459 188.214 35.2792C188.177 35.3048 188.141 35.3295 188.092 35.3624ZM186.707 34.3192C186.707 34.4744 186.711 34.6298 186.707 34.785C186.703 34.8893 186.745 34.9291 186.847 34.9276C187.057 34.9245 187.268 34.9276 187.478 34.9276C187.779 34.926 187.955 34.7929 188.035 34.5057C188.143 34.1188 187.907 33.7352 187.544 33.7223C187.309 33.7129 187.074 33.7223 186.839 33.719C186.74 33.719 186.706 33.7602 186.709 33.8548C186.71 34.0082 186.707 34.1637 186.707 34.3192Z" fill="#FF601C"/>
<path d="M184.929 34.879V35.7453C184.929 36.0114 184.926 36.2775 184.929 36.5436C184.929 36.6339 184.909 36.6876 184.805 36.6825C184.681 36.6761 184.525 36.7198 184.44 36.6605C184.368 36.6107 184.379 36.4432 184.349 36.317C184.329 36.3276 184.31 36.3401 184.293 36.3543C183.685 36.9298 182.66 36.7635 182.124 36.1223C181.342 35.1861 181.652 33.7563 182.756 33.2715C183.368 33.003 184.311 33.1302 184.723 33.7738C184.747 33.8112 184.768 33.8503 184.797 33.9013L184.311 34.2571C184.171 33.9935 183.958 33.841 183.685 33.7657C183.287 33.6554 182.87 33.7874 182.635 34.1272C182.323 34.5747 182.278 35.0613 182.516 35.5498C182.85 36.2275 183.709 36.3179 184.276 35.7481C184.313 35.7149 184.342 35.6739 184.36 35.628C184.379 35.5822 184.388 35.5327 184.385 35.4832C184.381 35.3874 184.353 35.3458 184.255 35.3482C184.105 35.3521 183.954 35.3461 183.804 35.3482C183.716 35.3503 183.681 35.3208 183.677 35.2277C183.662 34.8778 183.658 34.8778 184.006 34.8778L184.929 34.879Z" fill="#FF601C"/>
<path d="M189.822 33.1591C190.03 33.1591 190.219 33.1528 190.407 33.1657C190.437 33.1678 190.484 33.2561 190.485 33.3061C190.491 33.8184 190.485 34.3306 190.49 34.8429C190.489 35.0281 190.501 35.2132 190.526 35.3967C190.584 35.7785 190.89 36.0898 191.213 36.1139C191.707 36.1521 192.021 35.971 192.165 35.5413C192.219 35.3804 192.248 35.2124 192.253 35.0427C192.263 34.4756 192.257 33.9079 192.257 33.3405V33.1597C192.459 33.1597 192.643 33.1555 192.827 33.1642C192.857 33.1642 192.906 33.2263 192.906 33.2591C192.898 33.991 192.927 34.7272 192.859 35.454C192.786 36.2374 192.221 36.6764 191.435 36.7054C190.659 36.734 190.147 36.3206 189.979 35.8177C189.894 35.5768 189.844 35.3251 189.829 35.0701C189.807 34.4885 189.821 33.9055 189.82 33.3224L189.822 33.1591Z" fill="#FF601C"/>
<path d="M194.142 34.9074C194.142 34.3807 194.145 33.8527 194.14 33.3269C194.138 33.1989 194.172 33.1525 194.308 33.1549C194.753 33.1633 195.199 33.1549 195.645 33.1591C196.204 33.163 196.719 33.6713 196.749 34.2475C196.783 34.8802 196.369 35.4061 195.776 35.4654C195.527 35.4901 195.276 35.4826 195.026 35.4859C194.802 35.4889 194.802 35.4859 194.801 35.7185C194.801 35.9897 194.798 36.2609 194.801 36.5321C194.803 36.6348 194.771 36.6776 194.665 36.6722C194.55 36.6654 194.435 36.6673 194.32 36.6779C194.183 36.6918 194.136 36.6448 194.138 36.5038C194.145 35.9713 194.142 35.4392 194.142 34.9074ZM194.796 34.3126H194.801C194.801 34.4729 194.804 34.6332 194.801 34.7947C194.799 34.8917 194.842 34.9294 194.936 34.9285C195.156 34.9257 195.376 34.9285 195.596 34.9263C195.806 34.9233 195.957 34.8242 196.029 34.6205C196.11 34.3921 196.104 34.1685 195.979 33.9576C195.902 33.8286 195.788 33.7506 195.637 33.7467C195.392 33.7415 195.147 33.7467 194.902 33.7437C194.824 33.7437 194.794 33.7714 194.796 33.8488C194.797 34.0022 194.795 34.1574 194.795 34.3126H194.796Z" fill="#FF601C"/>
</g>
<defs>
<clipPath id="clip0">
<rect width="65" height="14.2224" fill="white" transform="translate(136 33)"/>
</clipPath>
</defs>
</svg>
