<svg width="201" height="31" viewBox="0 0 201 31" fill="none" xmlns="http://www.w3.org/2000/svg">
<path d="M42.56 16.4C42.56 15.2533 42.7733 14.2467 43.2 13.38C43.64 12.5133 44.2333 11.8467 44.98 11.38C45.7267 10.9133 46.56 10.68 47.48 10.68C48.2667 10.68 48.9533 10.84 49.54 11.16C50.14 11.48 50.6 11.9 50.92 12.42V10.84H54.34V22H50.92V20.42C50.5867 20.94 50.12 21.36 49.52 21.68C48.9333 22 48.2467 22.16 47.46 22.16C46.5533 22.16 45.7267 21.9267 44.98 21.46C44.2333 20.98 43.64 20.3067 43.2 19.44C42.7733 18.56 42.56 17.5467 42.56 16.4ZM50.92 16.42C50.92 15.5667 50.68 14.8933 50.2 14.4C49.7333 13.9067 49.16 13.66 48.48 13.66C47.8 13.66 47.22 13.9067 46.74 14.4C46.2733 14.88 46.04 15.5467 46.04 16.4C46.04 17.2533 46.2733 17.9333 46.74 18.44C47.22 18.9333 47.8 19.18 48.48 19.18C49.16 19.18 49.7333 18.9333 50.2 18.44C50.68 17.9467 50.92 17.2733 50.92 16.42ZM61.0542 10.68C61.8409 10.68 62.5276 10.84 63.1142 11.16C63.7142 11.48 64.1742 11.9 64.4942 12.42V10.84H67.9142V21.98C67.9142 23.0067 67.7076 23.9333 67.2942 24.76C66.8942 25.6 66.2742 26.2667 65.4342 26.76C64.6076 27.2533 63.5742 27.5 62.3342 27.5C60.6809 27.5 59.3409 27.1067 58.3142 26.32C57.2876 25.5467 56.7009 24.4933 56.5542 23.16H59.9342C60.0409 23.5867 60.2942 23.92 60.6942 24.16C61.0942 24.4133 61.5876 24.54 62.1742 24.54C62.8809 24.54 63.4409 24.3333 63.8542 23.92C64.2809 23.52 64.4942 22.8733 64.4942 21.98V20.4C64.1609 20.92 63.7009 21.3467 63.1142 21.68C62.5276 22 61.8409 22.16 61.0542 22.16C60.1342 22.16 59.3009 21.9267 58.5542 21.46C57.8076 20.98 57.2142 20.3067 56.7742 19.44C56.3476 18.56 56.1342 17.5467 56.1342 16.4C56.1342 15.2533 56.3476 14.2467 56.7742 13.38C57.2142 12.5133 57.8076 11.8467 58.5542 11.38C59.3009 10.9133 60.1342 10.68 61.0542 10.68ZM64.4942 16.42C64.4942 15.5667 64.2542 14.8933 63.7742 14.4C63.3076 13.9067 62.7342 13.66 62.0542 13.66C61.3742 13.66 60.7942 13.9067 60.3142 14.4C59.8476 14.88 59.6142 15.5467 59.6142 16.4C59.6142 17.2533 59.8476 17.9333 60.3142 18.44C60.7942 18.9333 61.3742 19.18 62.0542 19.18C62.7342 19.18 63.3076 18.9333 63.7742 18.44C64.2542 17.9467 64.4942 17.2733 64.4942 16.42ZM80.9084 16.24C80.9084 16.56 80.8884 16.8933 80.8484 17.24H73.1084C73.1618 17.9333 73.3818 18.4667 73.7684 18.84C74.1684 19.2 74.6551 19.38 75.2284 19.38C76.0818 19.38 76.6751 19.02 77.0084 18.3H80.6484C80.4618 19.0333 80.1218 19.6933 79.6284 20.28C79.1484 20.8667 78.5418 21.3267 77.8084 21.66C77.0751 21.9933 76.2551 22.16 75.3484 22.16C74.2551 22.16 73.2818 21.9267 72.4284 21.46C71.5751 20.9933 70.9084 20.3267 70.4284 19.46C69.9484 18.5933 69.7084 17.58 69.7084 16.42C69.7084 15.26 69.9418 14.2467 70.4084 13.38C70.8884 12.5133 71.5551 11.8467 72.4084 11.38C73.2618 10.9133 74.2418 10.68 75.3484 10.68C76.4284 10.68 77.3884 10.9067 78.2284 11.36C79.0684 11.8133 79.7218 12.46 80.1884 13.3C80.6684 14.14 80.9084 15.12 80.9084 16.24ZM77.4084 15.34C77.4084 14.7533 77.2084 14.2867 76.8084 13.94C76.4084 13.5933 75.9084 13.42 75.3084 13.42C74.7351 13.42 74.2484 13.5867 73.8484 13.92C73.4618 14.2533 73.2218 14.7267 73.1284 15.34H77.4084ZM89.5127 10.72C90.8193 10.72 91.8593 11.1467 92.6327 12C93.4193 12.84 93.8127 14 93.8127 15.48V22H90.4127V15.94C90.4127 15.1933 90.2193 14.6133 89.8327 14.2C89.446 13.7867 88.926 13.58 88.2727 13.58C87.6193 13.58 87.0993 13.7867 86.7127 14.2C86.326 14.6133 86.1327 15.1933 86.1327 15.94V22H82.7127V10.84H86.1327V12.32C86.4793 11.8267 86.946 11.44 87.5327 11.16C88.1193 10.8667 88.7793 10.72 89.5127 10.72ZM95.5092 16.4C95.5092 15.2533 95.7226 14.2467 96.1492 13.38C96.5892 12.5133 97.1826 11.8467 97.9292 11.38C98.6759 10.9133 99.5092 10.68 100.429 10.68C101.163 10.68 101.829 10.8333 102.429 11.14C103.043 11.4467 103.523 11.86 103.869 12.38V7.2H107.289V22H103.869V20.4C103.549 20.9333 103.089 21.36 102.489 21.68C101.903 22 101.216 22.16 100.429 22.16C99.5092 22.16 98.6759 21.9267 97.9292 21.46C97.1826 20.98 96.5892 20.3067 96.1492 19.44C95.7226 18.56 95.5092 17.5467 95.5092 16.4ZM103.869 16.42C103.869 15.5667 103.629 14.8933 103.149 14.4C102.683 13.9067 102.109 13.66 101.429 13.66C100.749 13.66 100.169 13.9067 99.6892 14.4C99.2226 14.88 98.9892 15.5467 98.9892 16.4C98.9892 17.2533 99.2226 17.9333 99.6892 18.44C100.169 18.9333 100.749 19.18 101.429 19.18C102.109 19.18 102.683 18.9333 103.149 18.44C103.629 17.9467 103.869 17.2733 103.869 16.42ZM109.083 16.4C109.083 15.2533 109.297 14.2467 109.723 13.38C110.163 12.5133 110.757 11.8467 111.503 11.38C112.25 10.9133 113.083 10.68 114.003 10.68C114.79 10.68 115.477 10.84 116.063 11.16C116.663 11.48 117.123 11.9 117.443 12.42V10.84H120.863V22H117.443V20.42C117.11 20.94 116.643 21.36 116.043 21.68C115.457 22 114.77 22.16 113.983 22.16C113.077 22.16 112.25 21.9267 111.503 21.46C110.757 20.98 110.163 20.3067 109.723 19.44C109.297 18.56 109.083 17.5467 109.083 16.4ZM117.443 16.42C117.443 15.5667 117.203 14.8933 116.723 14.4C116.257 13.9067 115.683 13.66 115.003 13.66C114.323 13.66 113.743 13.9067 113.263 14.4C112.797 14.88 112.563 15.5467 112.563 16.4C112.563 17.2533 112.797 17.9333 113.263 18.44C113.743 18.9333 114.323 19.18 115.003 19.18C115.683 19.18 116.257 18.9333 116.723 18.44C117.203 17.9467 117.443 17.2733 117.443 16.42ZM130.996 7.2V22H127.576V7.2H130.996ZM132.794 16.4C132.794 15.2533 133.008 14.2467 133.434 13.38C133.874 12.5133 134.468 11.8467 135.214 11.38C135.961 10.9133 136.794 10.68 137.714 10.68C138.501 10.68 139.188 10.84 139.774 11.16C140.374 11.48 140.834 11.9 141.154 12.42V10.84H144.574V22H141.154V20.42C140.821 20.94 140.354 21.36 139.754 21.68C139.168 22 138.481 22.16 137.694 22.16C136.788 22.16 135.961 21.9267 135.214 21.46C134.468 20.98 133.874 20.3067 133.434 19.44C133.008 18.56 132.794 17.5467 132.794 16.4ZM141.154 16.42C141.154 15.5667 140.914 14.8933 140.434 14.4C139.968 13.9067 139.394 13.66 138.714 13.66C138.034 13.66 137.454 13.9067 136.974 14.4C136.508 14.88 136.274 15.5467 136.274 16.4C136.274 17.2533 136.508 17.9333 136.974 18.44C137.454 18.9333 138.034 19.18 138.714 19.18C139.394 19.18 139.968 18.9333 140.434 18.44C140.914 17.9467 141.154 17.2733 141.154 16.42ZM150.469 12.7C150.869 12.0867 151.369 11.6067 151.969 11.26C152.569 10.9 153.235 10.72 153.969 10.72V14.34H153.029C152.175 14.34 151.535 14.5267 151.109 14.9C150.682 15.26 150.469 15.9 150.469 16.82V22H147.049V10.84H150.469V12.7ZM154.923 16.4C154.923 15.2533 155.137 14.2467 155.563 13.38C156.003 12.5133 156.597 11.8467 157.343 11.38C158.09 10.9133 158.923 10.68 159.843 10.68C160.63 10.68 161.317 10.84 161.903 11.16C162.503 11.48 162.963 11.9 163.283 12.42V10.84H166.703V22H163.283V20.42C162.95 20.94 162.483 21.36 161.883 21.68C161.297 22 160.61 22.16 159.823 22.16C158.917 22.16 158.09 21.9267 157.343 21.46C156.597 20.98 156.003 20.3067 155.563 19.44C155.137 18.56 154.923 17.5467 154.923 16.4ZM163.283 16.42C163.283 15.5667 163.043 14.8933 162.563 14.4C162.097 13.9067 161.523 13.66 160.843 13.66C160.163 13.66 159.583 13.9067 159.103 14.4C158.637 14.88 158.403 15.5467 158.403 16.4C158.403 17.2533 158.637 17.9333 159.103 18.44C159.583 18.9333 160.163 19.18 160.843 19.18C161.523 19.18 162.097 18.9333 162.563 18.44C163.043 17.9467 163.283 17.2733 163.283 16.42ZM175.978 10.72C177.284 10.72 178.324 11.1467 179.098 12C179.884 12.84 180.278 14 180.278 15.48V22H176.878V15.94C176.878 15.1933 176.684 14.6133 176.298 14.2C175.911 13.7867 175.391 13.58 174.738 13.58C174.084 13.58 173.564 13.7867 173.178 14.2C172.791 14.6133 172.598 15.1933 172.598 15.94V22H169.178V10.84H172.598V12.32C172.944 11.8267 173.411 11.44 173.998 11.16C174.584 10.8667 175.244 10.72 175.978 10.72ZM184.354 9.68C183.754 9.68 183.261 9.50667 182.874 9.16C182.501 8.8 182.314 8.36 182.314 7.84C182.314 7.30667 182.501 6.86667 182.874 6.52C183.261 6.16 183.754 5.98 184.354 5.98C184.941 5.98 185.421 6.16 185.794 6.52C186.181 6.86667 186.374 7.30667 186.374 7.84C186.374 8.36 186.181 8.8 185.794 9.16C185.421 9.50667 184.941 9.68 184.354 9.68ZM186.074 23.44C186.074 24.8133 185.727 25.8 185.034 26.4C184.341 27.0133 183.374 27.32 182.134 27.32H180.794V24.42H181.614C181.987 24.42 182.254 24.3467 182.414 24.2C182.574 24.0533 182.654 23.8133 182.654 23.48V10.84H186.074V23.44ZM187.853 16.4C187.853 15.2533 188.066 14.2467 188.493 13.38C188.933 12.5133 189.526 11.8467 190.273 11.38C191.02 10.9133 191.853 10.68 192.773 10.68C193.56 10.68 194.246 10.84 194.833 11.16C195.433 11.48 195.893 11.9 196.213 12.42V10.84H199.633V22H196.213V20.42C195.88 20.94 195.413 21.36 194.813 21.68C194.226 22 193.54 22.16 192.753 22.16C191.846 22.16 191.02 21.9267 190.273 21.46C189.526 20.98 188.933 20.3067 188.493 19.44C188.066 18.56 187.853 17.5467 187.853 16.4ZM196.213 16.42C196.213 15.5667 195.973 14.8933 195.493 14.4C195.026 13.9067 194.453 13.66 193.773 13.66C193.093 13.66 192.513 13.9067 192.033 14.4C191.566 14.88 191.333 15.5467 191.333 16.4C191.333 17.2533 191.566 17.9333 192.033 18.44C192.513 18.9333 193.093 19.18 193.773 19.18C194.453 19.18 195.026 18.9333 195.493 18.44C195.973 17.9467 196.213 17.2733 196.213 16.42Z" fill="#fff"/>
<path fill-rule="evenodd" clip-rule="evenodd" d="M0 0H31V31H0V0ZM23.04 17.7237V10L9 10V13.42H9.00216L9.00011 21.14L23.0401 21.1437L23.041 17.7237H23.04ZM11.7422 13.42L11.741 17.7207L14.701 17.7215L14.701 17.7H14.68V13.42H11.7422ZM17.34 13.4422L17.3622 13.4422L17.361 17.7222L20.3 17.723V13.42H17.34V13.4422Z" fill="#fff"/>
</svg>
