<?xml version="1.0" encoding="utf-8"?>
<!-- Generator: Adobe Illustrator 25.4.1, SVG Export Plug-In . SVG Version: 6.00 Build 0)  -->
<svg version="1.1" id="Camada_1" xmlns="http://www.w3.org/2000/svg" xmlns:xlink="http://www.w3.org/1999/xlink" x="0px" y="0px"
	 viewBox="0 0 2276.64 514.08" style="enable-background:new 0 0 2276.64 514.08;" xml:space="preserve">
<style type="text/css">
	.st0{fill:#FFF;}
</style>
<path class="st0" d="M524.12,23.48c-0.07,2.33-0.2,4.66-0.21,6.98c-0.02,77.28,0.2,154.56-0.12,231.84
	c-0.22,52.87-17.05,100.34-49.63,141.85c-37.87,48.26-87.53,77.31-147.95,87.8c-7.51,1.3-15.19,1.55-22.79,2.37
	c-2.12,0.23-4.2,0.76-6.31,1.16c-6,0-12,0-18,0c-1.76-0.38-3.51-1.03-5.29-1.11c-26.16-1.28-51.51-6.66-75.37-17.3
	C115.38,440.05,66.85,376.63,54.31,286.2c-0.82-5.89-1.46-11.81-2.19-17.72c0-6,0-12,0-18c0.38-1.77,0.86-3.52,1.13-5.31
	c2.08-13.94,3.13-28.11,6.32-41.79c22.01-94.52,105.8-168.05,201.85-177.72c5.91-0.6,11.8-1.44,17.7-2.17
	C360.79,23.48,442.45,23.48,524.12,23.48z M221.87,259.64c0,37.49,0,74.98,0,112.47c0,13.33-0.14,26.66,0.06,39.99
	c0.19,12.86,8.66,22.25,21.44,24.29c10.5,1.67,21.93-5.37,25.26-16.06c1.16-3.74,1.58-7.84,1.59-11.78
	c0.11-39.16,0.07-78.31,0.07-117.47c0-7.11,0.01-7.11,7.01-7.11c32.99-0.03,65.98,0.12,98.97-0.18
	c14.42-0.13,24.46-14.61,20.41-28.49c-3.14-10.79-11.91-16.88-24.76-16.9c-31.66-0.06-63.32-0.02-94.98-0.03
	c-6.64,0-6.65-0.01-6.65-6.42c-0.01-32.66,0.11-65.32-0.12-97.97c-0.04-5.12,1.4-6.35,6.42-6.33c43.15,0.2,86.31,0.17,129.47,0.08
	c13.62-0.03,24.01-10.03,24.16-22.86c0.15-12.65-10.43-22.7-24.11-22.71c-52.99-0.03-105.97-0.02-158.96,0.01
	c-1.98,0-4.02,0.12-5.92,0.61c-11.9,3.06-19.33,13.19-19.34,26.4C221.86,159.33,221.87,209.48,221.87,259.64z"/>
<path class="st0" d="M2213.12,92.48c-0.45,2.09-1.04,4.16-1.33,6.27c-3.19,23.52-24.14,44.35-47.66,47.35
	c-30.46,3.87-57.49-14.93-64.45-44.84c-7.43-31.9,13.29-64.97,45.08-71.98c26.06-5.74,51.8,8.64,63.07,35.66
	c2.46,5.9,3.57,12.35,5.3,18.55C2213.12,86.48,2213.12,89.48,2213.12,92.48z M2119.71,86.41c0.57,8.29,2.73,15.75,6.36,22.8
	c11.28,21.92,41.69,24.39,55.98,4.31c9.84-13.83,10.84-29.01,4.58-44.61c-5.55-13.83-15.84-21.79-30.86-22.14
	c-14.85-0.35-25.56,7.03-31.34,20.52C2121.88,73.24,2121.23,80.01,2119.71,86.41z"/>
<path class="st0" d="M1353.89,242.75c1.64-2.66,2.58-4.14,3.48-5.65c16.73-27.99,41.8-41.38,74-42.33
	c15.84-0.47,31.26,1.57,45.68,8.45c25.04,11.94,38.07,33.1,43.55,59.26c2.24,10.66,3.28,21.74,3.39,32.65
	c0.4,38.49-0.01,76.98,0.24,115.47c0.1,14.25-10.08,22.7-20.4,23.5c-13.18,1.02-23.54-8.74-23.61-22.56
	c-0.15-30.16,0-60.32-0.1-90.48c-0.04-10.49,0.08-21.02-0.81-31.45c-1.95-22.79-13.21-45.15-40.63-51.11
	c-35.6-7.73-68.91,15.75-73.82,52.19c-0.84,6.24-1.1,12.59-1.13,18.9c-0.11,32.99-0.05,65.99-0.05,98.98
	c0,5.98-1.24,11.58-5.05,16.35c-5.93,7.42-15.89,10.29-24.72,7.18c-8.69-3.06-14.53-11.12-14.55-20.64
	c-0.07-36.83,0-73.65-0.07-110.48c-0.02-12.4-1.71-24.55-6.99-35.95c-9.55-20.6-28.7-31.07-51.25-28.08
	c-31.99,4.23-50.25,20.68-56.71,51.45c-1.08,5.17-1.49,10.56-1.51,15.85c-0.13,35.33-0.05,70.65-0.09,105.98
	c-0.02,14.88-10.98,24.74-25.57,23.11c-9.8-1.09-18.01-9.74-18.74-19.75c-0.04-0.5-0.03-1-0.03-1.5c0-64.49-0.03-128.97,0.03-193.46
	c0.01-10.56,7.71-19.61,18.01-21.65c9.99-1.98,20.78,3.95,24.51,13.82c1.09,2.89,1.52,6.11,1.73,9.22
	c0.29,4.09,0.07,8.22,0.07,13.54c19.71-28.05,45.77-40.97,78.69-39.01C1314.14,196.5,1339.63,210.13,1353.89,242.75z"/>
<path class="st0" d="M740.72,437.26c-83.26-1-154.77-60.13-170.41-141.87c-15.77-82.37,24.06-161.88,98.37-195.87
	c27.45-12.56,56.31-17.36,86.5-14.92c37.75,3.05,71.07,16.33,99.35,41.66c13.08,11.71,9.94,31.88-5.79,38.2
	c-9.1,3.66-17.31,1.68-24.58-4.58c-14.05-12.1-29.72-21.28-47.51-26.72c-64.97-19.85-134.61,16.6-156.77,82.07
	c-21.64,63.94,4.47,133.69,62.62,162.8c47.89,23.97,93.96,18.54,136.85-13.67c4.61-3.46,9.28-7.4,14.57-9.26
	c10.08-3.54,20.9,1.21,25.73,9.97c5.36,9.71,3.62,20.99-4.82,28.65c-21.55,19.58-46.68,32.46-75.14,38.27
	C766.86,434.6,753.71,435.55,740.72,437.26z"/>
<path class="st0" d="M1055.06,303.89c3.93-29.77-6.67-57.43-39.99-66.62c-28.19-7.78-53.87-1.62-77.54,15.09
	c-4.15,2.93-9.45,5.18-14.45,5.77c-18.77,2.19-23.9-17.31-17.95-28.01c2.04-3.67,5.17-6.98,8.46-9.64
	c17.54-14.17,37.78-22.09,60.07-24.75c23.22-2.77,46.23-1.89,68.46,6.07c34.9,12.5,54,38.13,56.37,74.42
	c2.09,32.03,1.04,64.26,1.29,96.4c0.11,13.16,0.13,26.33-0.04,39.49c-0.13,10.41-8.17,19.7-17.87,21.11
	c-11.87,1.72-21.33-3.66-24.67-14.48c-1.01-3.26-0.88-6.88-1.24-10.34c-0.19-1.88-0.31-3.78-0.57-6.91
	c-4.76,4.85-8.26,9.13-12.45,12.56c-14.86,12.16-32.47,18.13-51.13,20.83c-21.38,3.09-42.51,1.69-62.79-6.52
	c-28.21-11.41-43.44-34.55-42.97-65.01c0.53-33.88,19.81-57.33,55.24-66.48c32.54-8.4,64.93-6.29,97.1,2.46
	C1043.83,300.8,1049.25,302.3,1055.06,303.89z M1055.47,353.67c0-2.62,0.03-3.79-0.01-4.96c-0.34-10.72,2.34-9.39-9.42-11.99
	c-17.63-3.89-35.48-7.11-53.41-9.17c-14.92-1.71-29.97-0.18-44.03,5.95c-14.55,6.34-21.61,17.9-20.78,33.11
	c0.68,12.48,9.69,22.6,24.28,27.21c12.33,3.9,24.91,3.71,37.52,1.95c20.21-2.83,39.17-8.93,55.45-21.81
	C1052.1,368.41,1058.49,362.56,1055.47,353.67z"/>
<path class="st0" d="M1736.4,401.56c-1.94,1.66-2.62,2.11-3.13,2.7c-17.02,19.73-39.68,27.78-64.59,30.93
	c-21.35,2.7-42.14,0.56-62.09-7.98c-50.14-21.46-49.77-85.76-20.48-111.84c12.74-11.34,27.84-17.34,44.24-20.55
	c33.64-6.57,66.52-2.46,98.95,7.4c2,0.61,4.06,1.07,6.14,1.61c4.14-29.39-6.97-57.5-39.96-66.55c-28.19-7.74-54.01-1.88-77.43,15.23
	c-4.55,3.32-9.23,5.75-15.03,5.89c-14.7,0.35-23.92-12.14-18.48-25.93c1.63-4.12,4.76-8.12,8.21-10.97
	c23.94-19.78,52.02-27.29,82.6-27.1c17.78,0.11,35.17,2.28,51.73,9.14c31.11,12.9,47.55,36.86,51.65,69.65
	c1.19,9.54,1.13,19.26,1.16,28.91c0.12,36.33,0.1,72.66,0.01,108.99c-0.04,14.44-10.84,23.86-25.18,22.27
	c-9.81-1.09-17.89-9.84-18.31-19.97C1736.28,409.95,1736.4,406.51,1736.4,401.56z M1736.27,352.47c-0.16-3.16-0.43-6.32-0.45-9.48
	c-0.01-2.78-1.31-4.08-3.93-4.84c-23.9-6.98-48.19-11.59-73.17-10.78c-12.84,0.41-25.61,2.33-36.57,9.94
	c-11.02,7.64-15.53,18.38-13.53,31.57c2.3,15.16,13.07,22.13,26.53,25.74c13.77,3.69,27.73,2.74,41.56,0.12
	c18.7-3.55,36.23-9.83,50.92-22.53C1733.68,366.98,1738.8,361.42,1736.27,352.47z"/>
<path class="st0" d="M2168.42,401.99c-1.62,1.04-2.27,1.27-2.64,1.72c-14.35,17.29-33.62,25.69-54.99,29.91
	c-24.52,4.84-48.79,3.9-71.87-6.43c-27.47-12.28-40.86-33.98-40.51-64.06c0.34-29.22,14.38-49.46,40.83-61.26
	c15.26-6.8,31.53-9.14,48.03-10.04c25.4-1.38,49.99,3.17,74.18,10.43c1.88,0.56,3.78,1.03,6.8,1.85c0-6.03,0.36-11.42-0.06-16.75
	c-2.3-29.17-21.41-48.45-50.44-52.34c-25.69-3.44-48.45,2.92-68.89,18.39c-6,4.54-12.68,5.78-19.82,4.61
	c-10.02-1.64-16.69-13.53-12.9-24.16c1.64-4.6,4.93-9.19,8.68-12.36c18.04-15.26,39.26-23.43,62.63-25.97
	c24.44-2.66,48.55-1.46,71.62,7.99c31.14,12.77,47.53,36.79,51.7,69.57c1.07,8.38,1.16,16.92,1.18,25.39
	c0.11,37.48,0.12,74.97-0.01,112.45c-0.05,14.58-10.74,23.94-25.05,22.4c-9.82-1.05-18-9.8-18.44-19.85
	C2168.29,410.05,2168.42,406.57,2168.42,401.99z M2087.21,397.84c10.29-1.71,20.74-2.77,30.85-5.26
	c18.02-4.43,34.62-11.91,47.19-26.27c1.52-1.73,2.8-4.26,2.93-6.5c0.32-5.47-0.19-10.98-0.2-16.48c-0.01-2.98-1.34-4.39-4.18-5.22
	c-23.74-6.93-47.86-11.5-72.67-10.76c-13.18,0.39-26.23,2.41-37.47,10.27c-19.61,13.72-17.79,42.17,3.4,53.16
	C2066.45,395.67,2076.6,397.06,2087.21,397.84z"/>
<path class="st0" d="M1884.36,249.42c0.68-1.76,1.39-3.52,2.03-5.29c5.28-14.6,12.28-28.08,24.81-37.91
	c9.03-7.08,19.34-11.34,30.8-11.38c9.41-0.03,18.84,1.1,28.24,1.97c2.25,0.21,4.48,1.26,6.59,2.2
	c10.04,4.49,14.06,12.62,11.86,23.68c-1.68,8.42-9.01,14.12-19.14,14.4c-5.3,0.14-10.63-0.36-15.94-0.65
	c-20.43-1.11-37.25,5.73-49.4,22.61c-10.77,14.96-15.53,32.2-18.42,50.08c-4.28,26.46-2.59,53.15-2.9,79.76
	c-0.08,7.16,0.03,14.33-0.03,21.49c-0.11,13.53-8.75,22.82-21.52,23.2c-12.5,0.37-22.02-8.83-22.87-22.12
	c-0.05-0.83-0.02-1.67-0.02-2.5c0-62.48-0.01-124.96,0.01-187.43c0-12.51,6.16-21.14,16.97-24.06c13.19-3.56,27.01,6.49,27.34,20.17
	c0.25,10.47,0.05,20.94,0.05,31.41C1883.36,249.17,1883.86,249.29,1884.36,249.42z"/>
<path class="st0" d="M1783.96,101.88c8.66,14.28,17.17,28.32,26.53,43.76c-6.3,0-11.52-0.43-16.64,0.11
	c-6.34,0.67-9.95-1.77-12.97-7.31c-5.25-9.63-11.43-18.75-17.02-28.2c-1.71-2.9-3.59-4.37-7.12-4.14
	c-4.81,0.31-9.66,0.22-14.48,0.03c-3.26-0.12-4.43,1.15-4.39,4.36c0.11,9.99-0.13,19.99,0.11,29.97c0.09,3.92-1.15,5.44-5.09,5.23
	c-4.15-0.23-8.33-0.22-12.49,0c-3.75,0.2-4.89-1.38-4.86-4.99c0.13-16.82,0.06-33.64,0.06-50.46c0-18.65,0.13-37.31-0.09-55.96
	c-0.05-4.39,1.22-5.71,5.64-5.64c15.48,0.26,30.98,0.05,46.46,0.11c16.72,0.06,31.3,11.62,36.14,28.51
	c4.5,15.71-2.04,33.16-15.71,41.92C1786.81,99.97,1785.6,100.79,1783.96,101.88z M1737.91,67.26c0,5.15,0.14,10.31-0.05,15.46
	c-0.13,3.47,1.28,4.78,4.66,4.73c6.98-0.1,13.97,0.02,20.95-0.02c10.03-0.05,15.84-4.47,18.51-13.99
	c3.61-12.84-4.26-25.57-16.34-26.05c-7.8-0.31-15.63,0.01-23.44-0.11c-3.27-0.05-4.41,1.37-4.32,4.51
	C1738.02,56.94,1737.92,62.1,1737.91,67.26z"/>
<path class="st0" d="M1678.82,85.84c0,10.1,0,19.4,0,28.71c0,8.83-0.09,17.66,0.05,26.49c0.05,3.03-0.66,4.78-4.1,4.61
	c-4.15-0.21-9.32,1.25-12.16-0.73c-2.38-1.65-2.04-7.21-2.99-11.4c-0.62,0.4-1.35,0.72-1.89,1.23c-20.2,19.11-54.29,13.59-72.08-7.7
	c-25.97-31.07-15.71-78.51,21-94.61c20.33-8.91,51.68-4.69,65.38,16.67c0.79,1.24,1.49,2.54,2.48,4.23
	c-5.37,3.92-10.54,7.7-16.16,11.81c-4.68-8.75-11.75-13.81-20.82-16.31c-13.24-3.65-27.09,0.72-34.92,11.96
	c-10.36,14.85-11.87,30.96-3.93,47.21c11.04,22.6,39.57,25.6,58.41,6.67c2.52-2.54,3.75-5.14,3.62-8.79
	c-0.11-3.18-1.07-4.55-4.32-4.47c-4.99,0.12-10-0.08-14.99,0.04c-2.9,0.07-4.08-0.91-4.21-4c-0.51-11.61-0.62-11.61,10.94-11.61
	C1658.09,85.84,1668.06,85.84,1678.82,85.84z"/>
<path class="st0" d="M1841.47,28.76c6.91,0,13.21-0.21,19.47,0.22c1,0.07,2.56,3.03,2.58,4.66c0.19,16.99,0.02,33.99,0.17,50.99
	c0.06,6.14,0.28,12.33,1.2,18.39c1.93,12.67,12.11,22.97,22.85,23.8c16.42,1.27,26.86-4.75,31.63-19.04
	c1.76-5.27,2.82-11,2.93-16.55c0.35-18.82,0.14-37.66,0.14-56.49c0-1.78,0-3.57,0-5.97c6.72,0,12.84-0.14,18.94,0.15
	c0.97,0.05,2.65,2.06,2.63,3.15c-0.28,24.3,0.7,48.72-1.56,72.85c-2.43,25.96-21.19,40.56-47.32,41.52
	c-25.81,0.95-42.84-12.77-48.41-29.46c-2.66-7.96-4.63-16.48-4.94-24.81c-0.73-19.3-0.27-38.65-0.29-57.98
	C1841.47,32.7,1841.47,31.21,1841.47,28.76z"/>
<path class="st0" d="M1985.08,86.78c0-17.48,0.11-34.97-0.08-52.45c-0.05-4.26,1.07-5.8,5.59-5.71c14.81,0.28,29.64,0.03,44.46,0.13
	c18.6,0.13,35.72,17.04,36.72,36.12c1.11,20.98-12.66,38.46-32.38,40.42c-8.25,0.82-16.62,0.57-24.93,0.68
	c-7.45,0.1-7.45,0.02-7.46,7.72c-0.01,8.99-0.12,17.99,0.05,26.97c0.06,3.4-0.99,4.83-4.53,4.65c-3.82-0.2-7.68-0.19-11.48,0.19
	c-4.54,0.46-6.12-1.09-6.05-5.78C1985.22,122.09,1985.08,104.43,1985.08,86.78z M2006.82,67.04c0.06,0,0.12,0,0.17,0
	c0,5.32,0.09,10.64-0.03,15.96c-0.08,3.22,1.34,4.48,4.47,4.44c7.31-0.09,14.63,0.04,21.94-0.07c7.06-0.1,12.03-3.39,14.42-10.14
	c2.69-7.58,2.47-15.02-1.69-22.06c-2.53-4.28-6.35-6.87-11.37-6.97c-8.14-0.17-16.29,0-24.43-0.1c-2.57-0.03-3.57,0.91-3.51,3.49
	C2006.9,56.74,2006.82,61.89,2006.82,67.04z"/>
</svg>
